<svg id="visual" viewBox="0 0 900 200" width="900" height="200" xmlns="http://www.w3.org/2000/svg" xmlns:xlink="http://www.w3.org/1999/xlink" version="1.1"><rect x="0" y="0" width="900" height="200" fill="#f5f5f5"></rect><path d="M0 143L39 143L39 156L78 156L78 173L117 173L117 132L157 132L157 167L196 167L196 160L235 160L235 172L274 172L274 131L313 131L313 132L352 132L352 160L391 160L391 136L430 136L430 136L470 136L470 158L509 158L509 168L548 168L548 132L587 132L587 126L626 126L626 158L665 158L665 163L704 163L704 162L743 162L743 160L783 160L783 148L822 148L822 132L861 132L861 170L900 170L900 139L900 0L900 0L861 0L861 0L822 0L822 0L783 0L783 0L743 0L743 0L704 0L704 0L665 0L665 0L626 0L626 0L587 0L587 0L548 0L548 0L509 0L509 0L470 0L470 0L430 0L430 0L391 0L391 0L352 0L352 0L313 0L313 0L274 0L274 0L235 0L235 0L196 0L196 0L157 0L157 0L117 0L117 0L78 0L78 0L39 0L39 0L0 0Z" fill="#fcbe60"></path><path d="M0 120L39 120L39 117L78 117L78 105L117 105L117 118L157 118L157 130L196 130L196 131L235 131L235 122L274 122L274 138L313 138L313 119L352 119L352 118L391 118L391 103L430 103L430 143L470 143L470 146L509 146L509 134L548 134L548 128L587 128L587 138L626 138L626 132L665 132L665 116L704 116L704 103L743 103L743 107L783 107L783 115L822 115L822 122L861 122L861 122L900 122L900 110L900 0L900 0L861 0L861 0L822 0L822 0L783 0L783 0L743 0L743 0L704 0L704 0L665 0L665 0L626 0L626 0L587 0L587 0L548 0L548 0L509 0L509 0L470 0L470 0L430 0L430 0L391 0L391 0L352 0L352 0L313 0L313 0L274 0L274 0L235 0L235 0L196 0L196 0L157 0L157 0L117 0L117 0L78 0L78 0L39 0L39 0L0 0Z" fill="#fca056"></path><path d="M0 83L39 83L39 114L78 114L78 98L117 98L117 105L157 105L157 111L196 111L196 108L235 108L235 107L274 107L274 82L313 82L313 111L352 111L352 115L391 115L391 88L430 88L430 99L470 99L470 88L509 88L509 96L548 96L548 84L587 84L587 91L626 91L626 91L665 91L665 106L704 106L704 80L743 80L743 120L783 120L783 92L822 92L822 92L861 92L861 86L900 86L900 90L900 0L900 0L861 0L861 0L822 0L822 0L783 0L783 0L743 0L743 0L704 0L704 0L665 0L665 0L626 0L626 0L587 0L587 0L548 0L548 0L509 0L509 0L470 0L470 0L430 0L430 0L391 0L391 0L352 0L352 0L313 0L313 0L274 0L274 0L235 0L235 0L196 0L196 0L157 0L157 0L117 0L117 0L78 0L78 0L39 0L39 0L0 0Z" fill="#f98155"></path><path d="M0 72L39 72L39 71L78 71L78 80L117 80L117 86L157 86L157 69L196 69L196 95L235 95L235 58L274 58L274 63L313 63L313 71L352 71L352 60L391 60L391 88L430 88L430 63L470 63L470 90L509 90L509 68L548 68L548 88L587 88L587 93L626 93L626 61L665 61L665 87L704 87L704 94L743 94L743 84L783 84L783 81L822 81L822 94L861 94L861 81L900 81L900 63L900 0L900 0L861 0L861 0L822 0L822 0L783 0L783 0L743 0L743 0L704 0L704 0L665 0L665 0L626 0L626 0L587 0L587 0L548 0L548 0L509 0L509 0L470 0L470 0L430 0L430 0L391 0L391 0L352 0L352 0L313 0L313 0L274 0L274 0L235 0L235 0L196 0L196 0L157 0L157 0L117 0L117 0L78 0L78 0L39 0L39 0L0 0Z" fill="#f0615a"></path><path d="M0 68L39 68L39 54L78 54L78 68L117 68L117 55L157 55L157 40L196 40L196 39L235 39L235 42L274 42L274 51L313 51L313 67L352 67L352 45L391 45L391 53L430 53L430 52L470 52L470 38L509 38L509 45L548 45L548 61L587 61L587 59L626 59L626 67L665 67L665 38L704 38L704 45L743 45L743 53L783 53L783 39L822 39L822 44L861 44L861 68L900 68L900 46L900 0L900 0L861 0L861 0L822 0L822 0L783 0L783 0L743 0L743 0L704 0L704 0L665 0L665 0L626 0L626 0L587 0L587 0L548 0L548 0L509 0L509 0L470 0L470 0L430 0L430 0L391 0L391 0L352 0L352 0L313 0L313 0L274 0L274 0L235 0L235 0L196 0L196 0L157 0L157 0L117 0L117 0L78 0L78 0L39 0L39 0L0 0Z" fill="#e14164"></path><path d="M0 17L39 17L39 27L78 27L78 14L117 14L117 18L157 18L157 39L196 39L196 18L235 18L235 36L274 36L274 28L313 28L313 17L352 17L352 24L391 24L391 21L430 21L430 14L470 14L470 23L509 23L509 24L548 24L548 20L587 20L587 36L626 36L626 16L665 16L665 36L704 36L704 14L743 14L743 16L783 16L783 18L822 18L822 21L861 21L861 19L900 19L900 31L900 0L900 0L861 0L861 0L822 0L822 0L783 0L783 0L743 0L743 0L704 0L704 0L665 0L665 0L626 0L626 0L587 0L587 0L548 0L548 0L509 0L509 0L470 0L470 0L430 0L430 0L391 0L391 0L352 0L352 0L313 0L313 0L274 0L274 0L235 0L235 0L196 0L196 0L157 0L157 0L117 0L117 0L78 0L78 0L39 0L39 0L0 0Z" fill="#cb206f"></path></svg>